<?xml version="1.0" encoding="UTF-8"?>
<svg xmlns="http://www.w3.org/2000/svg" xmlns:xlink="http://www.w3.org/1999/xlink" width="2592px" height="567px" viewBox="0 0 2592 567" version="1.1">
<g id="surface1">
<path style=" stroke:none;fill-rule:nonzero;fill:rgb(100%,100%,100%);fill-opacity:1;" d="M 837.179688 566.972656 L 837.179688 559.164062 C 841.628906 561.542969 848.609375 564.285156 856.105469 564.285156 C 865 564.285156 871.824219 559.941406 871.824219 552.441406 C 871.824219 544.945312 868.152344 540.964844 856.105469 536.3125 C 842.558594 531.089844 837.027344 524.832031 837.027344 514.128906 C 837.027344 501.875 846.695312 494.894531 858.847656 494.894531 C 865.671875 494.894531 871.824219 496.960938 875.394531 498.71875 L 875.394531 506.320312 C 871.722656 504.253906 865.15625 502.027344 859.105469 502.027344 C 850.417969 502.027344 844.058594 506.632812 844.058594 513.816406 C 844.058594 520.488281 847.367188 525.140625 859.570312 529.949219 C 873.167969 535.171875 878.855469 541.171875 878.855469 551.925781 C 878.855469 564.128906 869.757812 571.367188 856.46875 571.367188 C 848.609375 571.367188 841.523438 569.144531 837.179688 566.972656 "/>
<path style=" stroke:none;fill-rule:nonzero;fill:rgb(100%,100%,100%);fill-opacity:1;" d="M 919.808594 496.1875 C 919.808594 496.1875 936.664062 548.566406 938.320312 553.683594 C 940.027344 548.566406 957.398438 497.21875 957.398438 497.21875 L 957.605469 497.21875 C 957.605469 497.21875 975.082031 548.566406 976.6875 553.683594 C 978.390625 548.566406 995.195312 496.1875 995.195312 496.1875 L 1002.953125 496.1875 L 976.738281 572.453125 L 976.53125 572.453125 L 964.121094 536.363281 C 961.847656 529.796875 959.46875 522.917969 957.398438 516.457031 C 955.332031 522.917969 952.847656 529.796875 950.675781 536.363281 L 938.269531 572.453125 L 938.0625 572.453125 L 911.847656 496.1875 Z M 919.808594 496.1875 "/>
<path style=" stroke:none;fill-rule:nonzero;fill:rgb(100%,100%,100%);fill-opacity:1;" d="M 1042.507812 496.1875 L 1049.695312 496.1875 L 1049.695312 570.179688 L 1042.507812 570.179688 Z M 1042.507812 496.1875 "/>
<path style=" stroke:none;fill-rule:nonzero;fill:rgb(100%,100%,100%);fill-opacity:1;" d="M 1117.019531 502.753906 L 1138.011719 502.753906 L 1138.011719 496.1875 L 1088.941406 496.1875 L 1088.941406 502.753906 L 1109.832031 502.753906 L 1109.832031 570.179688 L 1117.019531 570.179688 Z M 1117.019531 502.753906 "/>
<path style=" stroke:none;fill-rule:nonzero;fill:rgb(100%,100%,100%);fill-opacity:1;" d="M 1220.742188 563.558594 L 1182.375 563.558594 L 1220.378906 496.1875 L 1173.378906 496.1875 L 1173.378906 502.753906 L 1209.210938 502.753906 L 1171.207031 570.179688 L 1220.742188 570.179688 Z M 1220.742188 563.558594 "/>
<path style=" stroke:none;fill-rule:nonzero;fill:rgb(100%,100%,100%);fill-opacity:1;" d="M 1269.605469 536.050781 L 1298.25 536.050781 L 1298.25 529.382812 L 1269.605469 529.382812 L 1269.605469 502.753906 L 1303.472656 502.753906 L 1303.472656 496.1875 L 1262.417969 496.1875 L 1262.417969 570.179688 L 1304.917969 570.179688 L 1304.917969 563.558594 L 1269.605469 563.558594 Z M 1269.605469 536.050781 "/>
<path style=" stroke:none;fill-rule:nonzero;fill:rgb(100%,100%,100%);fill-opacity:1;" d="M 1368.3125 496.1875 C 1382.6875 496.1875 1391.476562 504.40625 1391.476562 518.160156 C 1391.476562 529.382812 1385.066406 536.671875 1376.53125 538.894531 L 1392.511719 570.125 L 1384.496094 570.125 L 1369.449219 540.035156 L 1353.9375 540.035156 L 1353.9375 570.125 L 1346.75 570.125 L 1346.75 496.132812 L 1368.3125 496.132812 Z M 1353.9375 502.753906 L 1353.9375 533.570312 L 1368.519531 533.570312 C 1378.34375 533.570312 1384.238281 527.832031 1384.238281 518.160156 C 1384.238281 508.597656 1378.1875 502.753906 1368.054688 502.753906 Z M 1353.9375 502.753906 "/>
<path style=" stroke:none;fill-rule:nonzero;fill:rgb(100%,100%,100%);fill-opacity:1;" d="M 1441.578125 496.1875 L 1434.394531 496.1875 L 1434.394531 570.179688 L 1471.570312 570.179688 L 1471.570312 563.558594 L 1441.578125 563.558594 Z M 1441.578125 496.1875 "/>
<path style=" stroke:none;fill-rule:nonzero;fill:rgb(100%,100%,100%);fill-opacity:1;" d="M 1533.101562 494.945312 L 1533.308594 494.945312 L 1564.226562 570.179688 L 1556.679688 570.179688 L 1549.386719 552.289062 L 1516.96875 552.289062 L 1509.882812 570.179688 L 1502.230469 570.179688 Z M 1546.75 545.773438 C 1541.839844 533.519531 1537.597656 522.867188 1533.203125 511.234375 C 1528.859375 522.816406 1524.621094 533.519531 1519.65625 545.773438 Z M 1546.75 545.773438 "/>
<path style=" stroke:none;fill-rule:nonzero;fill:rgb(100%,100%,100%);fill-opacity:1;" d="M 1611.589844 517.023438 C 1610.917969 516.195312 1610.195312 515.265625 1609.625 514.4375 C 1609.625 516.507812 1609.730469 518.628906 1609.730469 521.003906 L 1609.730469 570.125 L 1602.542969 570.125 L 1602.542969 494.945312 L 1602.644531 494.945312 L 1646.027344 549.289062 L 1647.992188 551.875 C 1647.992188 549.804688 1647.890625 547.738281 1647.890625 545.308594 L 1647.890625 496.1875 L 1655.078125 496.1875 L 1655.078125 571.417969 L 1654.972656 571.417969 Z M 1611.589844 517.023438 "/>
<path style=" stroke:none;fill-rule:nonzero;fill:rgb(100%,100%,100%);fill-opacity:1;" d="M 1702.542969 570.179688 L 1702.542969 496.1875 L 1721.363281 496.1875 C 1741.683594 496.1875 1757.300781 510.355469 1757.300781 533.15625 C 1757.300781 555.960938 1741.890625 570.125 1721.726562 570.125 L 1702.542969 570.125 Z M 1709.730469 502.753906 L 1709.730469 563.558594 L 1721.726562 563.558594 C 1737.703125 563.558594 1749.90625 551.769531 1749.90625 533.15625 C 1749.90625 514.542969 1737.601562 502.753906 1721.261719 502.753906 Z M 1709.730469 502.753906 "/>
<path style=" stroke:none;fill-rule:nonzero;fill:rgb(100%,100%,100%);fill-opacity:1;" d="M 1653.113281 79.328125 C 1561.382812 79.328125 1494.476562 154.871094 1494.476562 248.511719 C 1494.476562 343.496094 1561.382812 417.695312 1653.113281 417.695312 C 1744.839844 417.695312 1811.695312 343.496094 1811.695312 248.511719 C 1811.695312 154.40625 1744.375 79.328125 1653.113281 79.328125 M 1746.492188 248.511719 C 1744.996094 324.105469 1707.816406 385.378906 1653.113281 385.378906 C 1598.40625 385.378906 1558.695312 326.589844 1559.679688 248.511719 C 1560.660156 172.191406 1598.40625 111.230469 1653.113281 111.230469 C 1707.816406 111.230469 1748.046875 171.417969 1746.492188 248.511719 "/>
<path style=" stroke:none;fill-rule:nonzero;fill:rgb(100%,100%,100%);fill-opacity:1;" d="M 1986.671875 411.386719 L 1986.671875 285.171875 L 2096.339844 85.6875 L 2059.265625 85.6875 L 1975.140625 243.652344 L 1884.292969 85.6875 L 1811.488281 85.6875 L 1921.3125 285.171875 L 1921.3125 411.386719 Z M 1986.671875 411.386719 "/>
<path style=" stroke:none;fill-rule:nonzero;fill:rgb(100%,100%,100%);fill-opacity:1;" d="M 2592 368.523438 C 2592 368.523438 2582.796875 412.9375 2546.1875 413.765625 C 2514.59375 415.886719 2435.328125 405.804688 2389.207031 411.75 L 2389.207031 85.6875 L 2454.617188 85.6875 L 2454.617188 375.710938 C 2454.5625 375.710938 2557.046875 381.292969 2592 368.523438 "/>
<path style=" stroke:none;fill-rule:nonzero;fill:rgb(100%,100%,100%);fill-opacity:1;" d="M 1374.980469 278.140625 C 1374.980469 278.140625 1444.269531 262.628906 1444.269531 189.667969 C 1444.269531 120.019531 1398.972656 85.6875 1328.703125 85.6875 L 1219.605469 85.6875 L 1219.605469 411.4375 L 1285.789062 411.4375 L 1285.789062 286.207031 C 1305.332031 284.863281 1310.605469 290.859375 1314.382812 296.132812 C 1354.144531 351.460938 1379.738281 395.308594 1392.820312 404.046875 C 1417.742188 420.644531 1495.71875 413.609375 1495.71875 413.609375 C 1495.71875 413.609375 1443.390625 387.601562 1374.980469 278.140625 M 1285.789062 121.882812 L 1330.410156 121.882812 C 1359.832031 121.882812 1382.425781 154.613281 1382.425781 187.1875 C 1382.425781 220.226562 1360.710938 248.5625 1332.066406 248.5625 L 1285.789062 248.5625 Z M 1285.789062 121.882812 "/>
<path style=" stroke:none;fill-rule:nonzero;fill:rgb(100%,100%,100%);fill-opacity:1;" d="M 250.777344 350.0625 C 231.851562 360.457031 201.964844 376.898438 162.824219 376.898438 C 103.101562 376.898438 64.789062 306.628906 64.789062 248.304688 C 64.789062 190.394531 102.429688 119.8125 163.859375 119.8125 C 200.878906 119.8125 230.457031 137.808594 248.554688 147.734375 L 248.65625 101.714844 C 233.09375 92.667969 202.792969 79.121094 160.289062 79.121094 C 66.910156 79.121094 0 153.320312 0 248.304688 C 0 343.753906 66.910156 417.488281 158.222656 417.488281 C 200.726562 417.488281 235.214844 404.820312 250.777344 395.773438 Z M 250.777344 350.0625 "/>
<path style=" stroke:none;fill-rule:nonzero;fill:rgb(100%,100%,100%);fill-opacity:1;" d="M 691.058594 232.484375 L 691.058594 119.195312 L 810.964844 119.195312 L 810.964844 85.429688 L 626.269531 85.429688 L 626.269531 411.128906 L 691.058594 411.128906 L 691.058594 262.214844 L 792.042969 262.214844 L 792.042969 232.484375 Z M 691.058594 232.484375 "/>
<path style=" stroke:none;fill-rule:nonzero;fill:rgb(100%,100%,100%);fill-opacity:1;" d="M 1045.507812 119.195312 L 1045.507812 85.429688 L 860.8125 85.429688 L 860.8125 411.128906 L 1051.765625 411.128906 L 1051.765625 377.519531 L 925.601562 377.519531 L 925.601562 262.472656 L 1026.015625 262.472656 L 1026.015625 232.277344 L 925.601562 232.277344 L 925.601562 119.195312 Z M 1045.507812 119.195312 "/>
<path style=" stroke:none;fill-rule:nonzero;fill:rgb(100%,100%,100%);fill-opacity:1;" d="M 1030.667969 4.40625 C 995.972656 -0.972656 954.96875 -14.003906 917.480469 60.453125 C 940.648438 47.734375 970.015625 52.285156 984.078125 48.511719 C 1007.089844 43.289062 1015.878906 14.644531 1030.667969 4.40625 "/>
<path style=" stroke:none;fill-rule:nonzero;fill:rgb(100%,100%,100%);fill-opacity:1;" d="M 359.828125 325.554688 L 483.714844 325.554688 L 518.773438 411.179688 L 584.234375 411.179688 L 445.8125 83.359375 C 438.835938 81.863281 425.699219 80.414062 414.894531 106.058594 C 404.085938 131.707031 286.402344 411.179688 286.402344 411.179688 L 324.148438 411.179688 Z M 422.546875 176.175781 L 471.410156 295.511719 L 372.648438 295.511719 Z M 422.546875 176.175781 "/>
<path style=" stroke:none;fill-rule:nonzero;fill:rgb(100%,100%,100%);fill-opacity:1;" d="M 2126.640625 325.8125 L 2250.53125 325.8125 L 2285.585938 411.4375 L 2351.046875 411.4375 L 2212.628906 83.621094 C 2205.648438 82.121094 2192.515625 80.671875 2181.707031 106.320312 C 2170.902344 131.914062 2053.21875 411.4375 2053.21875 411.4375 L 2090.964844 411.4375 Z M 2189.359375 176.433594 L 2238.222656 295.773438 L 2139.464844 295.773438 Z M 2189.359375 176.433594 "/>
</g>
</svg>
