<?xml version="1.0" encoding="UTF-8" standalone="no"?>
<!-- Generator: Adobe Illustrator 26.1.0, SVG Export Plug-In . SVG Version: 6.00 Build 0)  -->

<svg
   version="1.1"
   x="0px"
   y="0px"
   viewBox="0 0 95.999995 21.201985"
   xml:space="preserve"
   id="svg182"
   width="96"
   height="21.201984"
   xmlns="http://www.w3.org/2000/svg"
   xmlns:svg="http://www.w3.org/2000/svg"><defs
   id="defs186" />
<style
   type="text/css"
   id="style132">
	.st0{fill:#121212;}
</style>
<g
   id="Ebene_2"
   transform="translate(-46.99,-107.0281)">
</g>
<g
   id="Ebene_1"
   transform="matrix(0.19150591,0,0,0.19150591,-8.9988627,-20.496513)">
	<g
   id="g179">
		<path
   class="st0"
   d="m 208.9,216.68 v -1.51 c 0.86,0.46 2.21,0.99 3.66,0.99 1.72,0 3.04,-0.84 3.04,-2.29 0,-1.45 -0.71,-2.22 -3.04,-3.12 -2.62,-1.01 -3.69,-2.22 -3.69,-4.29 0,-2.37 1.87,-3.72 4.22,-3.72 1.32,0 2.51,0.4 3.2,0.74 v 1.47 c -0.71,-0.4 -1.98,-0.83 -3.15,-0.83 -1.68,0 -2.91,0.89 -2.91,2.28 0,1.29 0.64,2.19 3,3.12 2.63,1.01 3.73,2.17 3.73,4.25 0,2.36 -1.76,3.76 -4.33,3.76 -1.52,0 -2.89,-0.43 -3.73,-0.85"
   id="path135" />
		<path
   class="st0"
   d="m 224.88,202.99 c 0,0 3.26,10.13 3.58,11.12 0.33,-0.99 3.69,-10.92 3.69,-10.92 h 0.04 c 0,0 3.38,9.93 3.69,10.92 0.33,-0.99 3.58,-11.12 3.58,-11.12 h 1.5 l -5.07,14.75 h -0.04 l -2.4,-6.98 c -0.44,-1.27 -0.9,-2.6 -1.3,-3.85 -0.4,1.25 -0.88,2.58 -1.3,3.85 l -2.4,6.98 h -0.04 l -5.07,-14.75 z"
   id="path137" />
		<rect
   x="248.61"
   y="202.99001"
   class="st0"
   width="1.39"
   height="14.31"
   id="rect139" />
		<polygon
   class="st0"
   points="263.02,204.26 267.08,204.26 267.08,202.99 257.59,202.99 257.59,204.26 261.63,204.26 261.63,217.3 263.02,217.3 "
   id="polygon141" />
		<polygon
   class="st0"
   points="283.08,216.02 275.66,216.02 283.01,202.99 273.92,202.99 273.92,204.26 280.85,204.26 273.5,217.3 283.08,217.3 "
   id="polygon143" />
		<polygon
   class="st0"
   points="292.53,210.7 298.07,210.7 298.07,209.41 292.53,209.41 292.53,204.26 299.08,204.26 299.08,202.99 291.14,202.99 291.14,217.3 299.36,217.3 299.36,216.02 292.53,216.02 "
   id="polygon145" />
		<path
   class="st0"
   d="m 311.62,202.99 c 2.78,0 4.48,1.59 4.48,4.25 0,2.17 -1.24,3.58 -2.89,4.01 l 3.09,6.04 h -1.55 l -2.91,-5.82 h -3 v 5.82 h -1.39 v -14.31 h 4.17 z m -2.78,1.27 v 5.96 h 2.82 c 1.9,0 3.04,-1.11 3.04,-2.98 0,-1.85 -1.17,-2.98 -3.13,-2.98 z"
   id="path147" />
		<polygon
   class="st0"
   points="325.79,202.99 324.4,202.99 324.4,217.3 331.59,217.3 331.59,216.02 325.79,216.02 "
   id="polygon149" />
		<path
   class="st0"
   d="m 343.49,202.75 h 0.04 l 5.98,14.55 h -1.46 l -1.41,-3.46 h -6.27 L 339,217.3 h -1.48 z m 2.64,9.83 c -0.95,-2.37 -1.77,-4.43 -2.62,-6.68 -0.84,2.24 -1.66,4.31 -2.62,6.68 z"
   id="path151" />
		<path
   class="st0"
   d="m 358.67,207.02 c -0.13,-0.16 -0.27,-0.34 -0.38,-0.5 0,0.4 0.02,0.81 0.02,1.27 v 9.5 h -1.39 v -14.54 h 0.02 l 8.39,10.51 0.38,0.5 c 0,-0.4 -0.02,-0.8 -0.02,-1.27 v -9.5 h 1.39 v 14.55 h -0.02 z"
   id="path153" />
		<path
   class="st0"
   d="m 376.26,217.3 v -14.31 h 3.64 c 3.93,0 6.95,2.74 6.95,7.15 0,4.41 -2.98,7.15 -6.88,7.15 h -3.71 z m 1.39,-13.04 v 11.76 h 2.32 c 3.09,0 5.45,-2.28 5.45,-5.88 0,-3.6 -2.38,-5.88 -5.54,-5.88 z"
   id="path155" />
		<g
   id="g177">
			<path
   class="st0"
   d="m 366.7,122.37 c -17.74,0 -30.68,14.61 -30.68,32.72 0,18.37 12.94,32.72 30.68,32.72 17.74,0 30.67,-14.35 30.67,-32.72 0,-18.2 -13.02,-32.72 -30.67,-32.72 m 18.06,32.72 c -0.29,14.62 -7.48,26.47 -18.06,26.47 -10.58,0 -18.26,-11.37 -18.07,-26.47 0.19,-14.76 7.49,-26.55 18.07,-26.55 10.58,0 18.36,11.64 18.06,26.55"
   id="path157" />
			<polygon
   class="st0"
   points="431.21,186.59 431.21,162.18 452.42,123.6 445.25,123.6 428.98,154.15 411.41,123.6 397.33,123.6 418.57,162.18 418.57,186.59 "
   id="polygon159" />
			<path
   class="st0"
   d="m 548.28,178.3 c 0,0 -1.78,8.59 -8.86,8.75 -6.11,0.41 -21.44,-1.54 -30.36,-0.39 V 123.6 h 12.65 v 56.09 c -0.01,0 19.81,1.08 26.57,-1.39"
   id="path161" />
			<path
   class="st0"
   d="m 312.91,160.82 c 0,0 13.4,-3 13.4,-17.11 0,-13.47 -8.76,-20.11 -22.35,-20.11 h -21.1 v 63 h 12.8 v -24.22 c 3.78,-0.26 4.8,0.9 5.53,1.92 7.69,10.7 12.64,19.18 15.17,20.87 4.82,3.21 19.9,1.85 19.9,1.85 0,0 -10.12,-5.03 -23.35,-26.2 M 295.66,130.6 h 8.63 c 5.69,0 10.06,6.33 10.06,12.63 0,6.39 -4.2,11.87 -9.74,11.87 h -8.95 z"
   id="path163" />
			<path
   class="st0"
   d="m 95.49,174.73 c -3.66,2.01 -9.44,5.19 -17.01,5.19 -11.55,0 -18.96,-13.59 -18.96,-24.87 0,-11.2 7.28,-24.85 19.16,-24.85 7.16,0 12.88,3.48 16.38,5.4 l 0.02,-8.9 c -3.01,-1.75 -8.87,-4.37 -17.09,-4.37 -18.06,0 -31,14.35 -31,32.72 0,18.46 12.94,32.72 30.6,32.72 8.22,0 14.89,-2.45 17.9,-4.2 z"
   id="path165" />
			<polygon
   class="st0"
   points="180.64,151.99 180.64,130.08 203.83,130.08 203.83,123.55 168.11,123.55 168.11,186.54 180.64,186.54 180.64,157.74 200.17,157.74 200.17,151.99 "
   id="polygon167" />
			<polygon
   class="st0"
   points="249.19,130.08 249.19,123.55 213.47,123.55 213.47,186.54 250.4,186.54 250.4,180.04 226,180.04 226,157.79 245.42,157.79 245.42,151.95 226,151.95 226,130.08 "
   id="polygon169" />
			<path
   class="st0"
   d="m 246.32,107.88 c -6.71,-1.04 -14.64,-3.56 -21.89,10.84 4.48,-2.46 10.16,-1.58 12.88,-2.31 4.45,-1.01 6.15,-6.55 9.01,-8.53"
   id="path171" />
			<path
   class="st0"
   d="m 116.58,169.99 h 23.96 l 6.78,16.56 h 12.66 l -26.77,-63.4 c -1.35,-0.29 -3.89,-0.57 -5.98,4.39 -2.09,4.96 -24.85,59.01 -24.85,59.01 h 7.3 z m 12.13,-28.89 9.45,23.08 h -19.1 z"
   id="path173" />
			<path
   class="st0"
   d="m 458.28,170.04 h 23.96 l 6.78,16.56 h 12.66 l -26.77,-63.4 c -1.35,-0.29 -3.89,-0.57 -5.98,4.39 -2.09,4.95 -24.85,59.01 -24.85,59.01 h 7.3 z m 12.13,-28.89 9.45,23.08 h -19.1 z"
   id="path175" />
		</g>
	</g>
</g>
</svg>
