<?xml version="1.0" encoding="UTF-8"?>
<!DOCTYPE svg PUBLIC "-//W3C//DTD SVG 1.1//EN" "http://www.w3.org/Graphics/SVG/1.1/DTD/svg11.dtd">
<svg xmlns="http://www.w3.org/2000/svg" version="1.1" width="57px" height="56px" style="shape-rendering:geometricPrecision; text-rendering:geometricPrecision; image-rendering:optimizeQuality; fill-rule:evenodd; clip-rule:evenodd" xmlns:xlink="http://www.w3.org/1999/xlink">
<g><path style="opacity:0.931" fill="#f4f4f4" d="M 20.5,-0.5 C 25.5,-0.5 30.5,-0.5 35.5,-0.5C 46.2015,2.86817 53.2015,9.86817 56.5,20.5C 56.5,25.1667 56.5,29.8333 56.5,34.5C 55.0256,40.1078 52.0256,44.7745 47.5,48.5C 32.668,43.2773 17.8347,37.9439 3,32.5C 1.69895,32.6387 0.865619,33.3054 0.5,34.5C 0.166667,34.5 -0.166667,34.5 -0.5,34.5C -0.5,29.8333 -0.5,25.1667 -0.5,20.5C 1.27231,15.8591 3.77231,11.5257 7,7.5C 11.1834,4.1637 15.6834,1.49703 20.5,-0.5 Z"/></g>
<g><path style="opacity:1" fill="#050505" d="M 28.5,3.5 C 33.6955,4.28684 38.6955,5.78684 43.5,8C 44.8742,10.5829 46.3742,13.0829 48,15.5C 46.6171,24.7995 45.1171,34.1328 43.5,43.5C 31.505,40.1669 19.8383,35.8335 8.5,30.5C 12.6667,22.8333 16.8333,15.1667 21,7.5C 23.5138,5.99577 26.0138,4.66243 28.5,3.5 Z"/></g>
<g><path style="opacity:0.983" fill="#151515" d="M 47.5,48.5 C 46.1007,49.8897 44.4341,50.8897 42.5,51.5C 28.7879,45.6535 14.7879,40.3202 0.5,35.5C 0.5,35.1667 0.5,34.8333 0.5,34.5C 0.865619,33.3054 1.69895,32.6387 3,32.5C 17.8347,37.9439 32.668,43.2773 47.5,48.5 Z"/></g>
<g><path style="opacity:0.928" fill="#fbfbfb" d="M 0.5,35.5 C 14.7879,40.3202 28.7879,45.6535 42.5,51.5C 40.2974,53.1002 37.964,54.4335 35.5,55.5C 30.5,55.5 25.5,55.5 20.5,55.5C 10.1731,52.5065 3.50648,45.8398 0.5,35.5 Z"/></g>
</svg>
