<svg width="24px" height="24px" viewBox="0 0 22 22" version="1.1" xmlns="http://www.w3.org/2000/svg"
    xmlns:xlink="http://www.w3.org/1999/xlink">
    <!-- Generator: Sketch 55.2 (78181) - https://sketchapp.com -->
    <title>icon/flag/uk</title>
    <desc>Created with Sketch.</desc>
    <g id="icon/flag/uk" stroke="none" stroke-width="1" fill="none" fill-rule="evenodd">
        <g id="UK" transform="translate(3.000000, 3.000000)">
            <rect id="Rectangle" fill="#00247D" fill-rule="nonzero" x="0" y="0" width="18"
                height="18"></rect>
            <polygon id="Path" fill="#FFFFFF" fill-rule="nonzero"
                points="11 4.58578644 15.5857864 0 18 0 18 2.41421356 11.4142136 9 18 15.5857864 18 18 15.5857864 18 11 13.4142136 11 18 7 18 7 13.4142136 2.41421356 18 0 18 0 15.5857864 6.58578644 9 0 2.41421356 0 0 2.41421356 0 7 4.58578644 7 0 11 0"></polygon>
            <polygon id="Path" fill="#CF142B"
                points="9 8 17 0 18 0 18 1 10 9 18 17 18 18 17 18 9 10 1 18 0 18 0 17 8 9 0 1 0 0 1 0"></polygon>
            <rect id="Rectangle" fill="#FFFFFF" fill-rule="nonzero" x="0" y="6" width="18"
                height="6"></rect>
            <polygon id="Path" fill="#CF142B"
                points="8 7 8 0 10 0 10 7 18 7 18 11 10 11 10 18 8 18 8 11 0 11 0 7"></polygon>
        </g>
    </g>
</svg>